<mxfile host="app.diagrams.net" modified="2023-07-25T10:37:22.653Z" agent="Mozilla/5.0 (Windows NT 10.0; Win64; x64) AppleWebKit/537.36 (KHTML, like Gecko) Chrome/114.0.0.0 Safari/537.36" version="21.6.5" etag="3gZFESJKSti5k4vsX7aD" type="github">
  <diagram name="Страница 1" id="WWJTZpefmepHNkrWrImT">
    <mxGraphModel>
      <root>
        <mxCell id="0" />
        <mxCell id="1" parent="0" />
      </root>
    </mxGraphModel>
  </diagram>
</mxfile>
